#!OML:ASF F:\VICON\USERDATA\INSTALL\rory3\rory3.ASF
:FULLY-SPECIFIED
:DEGREES
198
root 10.4687 18.191 -0.921411 -182 -7.57634 182.201
lowerback 15.1668 5.75152 4.15901
upperback 3.14447 7.78231 -1.64071
thorax -4.29238 3.63842 -5.44261
lowerneck -17.2892 16.288 -4.56283
upperneck 44.4737 22.1525 3.81945
head 18.5927 7.35834 6.37429
rclavicle 1.13307e-014 7.95139e-016
rhumerus -38.9271 -15.1893 -71.6856
rradius 44.6783
rwrist 2.80036
rhand -13.1529 7.55411
rfingers 7.12502
rthumb 12.9458 -22.0243
lclavicle 1.13307e-014 7.95139e-016
lhumerus -34.2247 11.8861 79.5323
lradius 33.7685
lwrist -3.91945
lhand -17.377 25.4595
lfingers 7.12502
lthumb 8.87159 55.253
rfemur -7.66385 -5.54825 25.7174
rtibia 31.2177
rfoot -10.7244 -0.499203
rtoes 1.02785
lfemur -16.7261 -10.5571 -16.1716
ltibia 51.7153
lfoot -6.89085 -14.6434
ltoes -12.1654
199
root 10.454 18.1959 -0.824112 -182.001 -7.57322 182.153
lowerback 15.1382 5.71396 4.08778
upperback 3.11559 7.72555 -1.63152
thorax -4.32549 3.61078 -5.3841
lowerneck -17.3235 16.2632 -4.56171
upperneck 44.4761 22.1135 3.82705
head 18.6044 7.3396 6.37518
rclavicle 3.35946e-014 -2.90226e-014
rhumerus -39.3421 -15.2871 -71.5041
rradius 43.8637
rwrist 2.8643
rhand -13.1981 7.68204
rfingers 7.12502
rthumb 12.9022 -21.8991
lclavicle 3.35946e-014 -2.90226e-014
lhumerus -33.9855 11.425 79.6963
lradius 33.9206
lwrist -4.01283
lhand -17.2167 25.2992
lfingers 7.12502
lthumb 9.02628 55.086
rfemur -8.00204 -5.46608 25.6272
rtibia 31.2009
rfoot -10.4124 -0.558538
rtoes 0.553194
lfemur -15.8492 -10.6252 -16.2423
ltibia 52.0371
lfoot -6.1855 -15.1583
ltoes -11.3544
200
root 10.4365 18.2005 -0.730842 -182.054 -7.63741 182.207
lowerback 15.1045 5.61839 4.14647
upperback 3.0888 7.61353 -1.61185
thorax -4.34372 3.55563 -5.37629
lowerneck -17.2034 16.3008 -4.33263
upperneck 44.506 22.0959 3.73945
head 18.6526 7.34373 6.29899
rclavicle 7.7526e-015 -2.82274e-014
rhumerus -39.802 -15.5395 -71.3136
rradius 43.0968
rwrist 2.96339
rhand -13.0269 7.63333
rfingers 7.12502
rthumb 13.0672 -21.9373
lclavicle 7.7526e-015 -2.82274e-014
lhumerus -33.7897 11.1329 79.7756
lradius 34.0945
lwrist -4.24154
lhand -17.0938 25.5852
lfingers 7.12502
lthumb 9.1448 55.3669
rfemur -8.28348 -5.43555 25.614
rtibia 31.2133
rfoot -10.2971 -0.63801
rtoes 0.628159
lfemur -14.8683 -10.7283 -16.2264
ltibia 52.2315
lfoot -5.53412 -15.6461
ltoes -10.9091
201
root 10.4196 18.2014 -0.632035 -181.974 -7.69049 182.166
lowerback 14.9583 5.52562 4.04892
upperback 3.07414 7.47795 -1.59387
thorax -4.3117 3.49322 -5.26699
lowerneck -17.1645 16.3265 -4.26016
upperneck 44.5194 22.083 3.76707
head 18.6571 7.35127 6.29621
rclavicle -5.6753e-014 9.54166e-015
rhumerus -40.1952 -15.847 -71.0744
rradius 42.329
rwrist 3.2172
rhand -12.8552 7.6653
rfingers 7.12502
rthumb 13.2327 -21.8947
lclavicle -5.6753e-014 9.54166e-015
lhumerus -33.4234 10.9605 79.8815
lradius 34.0866
lwrist -4.42582
lhand -17.1053 25.5938
lfingers 7.12502
lthumb 9.13372 55.376
rfemur -8.74698 -5.31562 25.521
rtibia 31.2861
rfoot -10.229 -0.812606
rtoes 0.641645
lfemur -14.0249 -10.8244 -16.2924
ltibia 52.296
lfoot -4.57234 -16.321
ltoes -10.8838
202
root 10.4042 18.1986 -0.530556 -181.862 -7.73409 181.855
lowerback 14.8156 5.44918 3.63415
upperback 3.06762 7.31022 -1.61869
thorax -4.311 3.41553 -5.02351
lowerneck -17.1382 16.3338 -4.34284
upperneck 44.438 22.091 3.82206
head 18.5713 7.36599 6.31547
rclavicle 7.0171e-014 -3.89618e-014
rhumerus -40.5514 -16.1252 -70.7892
rradius 41.5954
rwrist 3.63868
rhand -12.6349 7.71127
rfingers 7.12502
rthumb 13.4451 -21.8348
lclavicle 7.0171e-014 -3.89618e-014
lhumerus -33.1547 10.706 80.0227
lradius 34.2561
lwrist -4.40294
lhand -17.2342 25.2868
lfingers 7.12502
lthumb 9.00931 55.0744
rfemur -9.22553 -5.1252 25.1439
rtibia 31.3695
rfoot -10.1276 -1.02596
rtoes 0.559016
lfemur -13.1272 -10.8543 -16.6471
ltibia 52.2456
lfoot -3.58362 -17.289
ltoes -11.8311
203
root 10.3914 18.1941 -0.431502 -181.868 -7.79762 181.682
lowerback 14.7887 5.37507 3.36581
upperback 3.04754 7.17214 -1.62523
thorax -4.36578 3.34828 -4.85978
lowerneck -17.0473 16.3224 -4.36927
upperneck 44.3024 22.0717 3.8024
head 18.4654 7.37393 6.28006
rclavicle 1.24091e-013 -3.57812e-014
rhumerus -40.9999 -16.5064 -70.4921
rradius 40.8664
rwrist 3.94634
rhand -12.5653 7.62998
rfingers 7.12502
rthumb 13.5122 -21.9116
lclavicle 1.24091e-013 -3.57812e-014
lhumerus -33.0366 10.2994 80.1283
lradius 34.6393
lwrist -4.33578
lhand -17.1423 25.3465
lfingers 7.12502
lthumb 9.09806 55.1302
rfemur -9.60118 -5.01146 24.9075
rtibia 31.4466
rfoot -10.0221 -1.18393
rtoes 1.06315
lfemur -12.0583 -10.8061 -16.83
ltibia 52.0724
lfoot -2.22966 -18.573
ltoes -12.1755
204
root 10.375 18.187 -0.333521 -181.886 -7.82429 181.882
lowerback 14.7773 5.27607 3.48946
upperback 2.94452 7.07776 -1.5632
thorax -4.47143 3.30038 -4.85418
lowerneck -16.9024 16.3207 -4.20918
upperneck 44.2607 21.9985 3.75189
head 18.4461 7.3642 6.20663
rclavicle 6.66426e-014 1.86858e-014
rhumerus -41.572 -16.821 -70.2308
rradius 40.0909
rwrist 4.1061
rhand -12.6735 7.66203
rfingers 7.12502
rthumb 13.4079 -21.8865
lclavicle 6.66426e-014 1.86858e-014
lhumerus -32.8838 9.94834 80.1751
lradius 34.7917
lwrist -4.25194
lhand -17.246 25.2165
lfingers 7.12502
lthumb 8.99796 55.0046
rfemur -9.96825 -4.96362 25.0594
rtibia 31.4696
rfoot -9.9435 -1.27067
rtoes 1.32766
lfemur -11.0345 -10.6959 -16.5861
ltibia 51.77
lfoot -0.284964 -20.1161
ltoes -10.3562
205
root 10.3576 18.1815 -0.237598 -181.823 -7.898 181.857
lowerback 14.5764 5.19721 3.35608
upperback 2.9557 6.95461 -1.52128
thorax -4.38541 3.2464 -4.6948
lowerneck -17.0281 16.327 -4.13237
upperneck 44.4611 21.9607 3.8171
head 18.6026 7.32998 6.25521
rclavicle 3.62285e-014 6.75868e-015
rhumerus -41.9701 -17.0821 -69.9515
rradius 39.4014
rwrist 4.35976
rhand -12.7965 7.57492
rfingers 7.12502
rthumb 13.2894 -21.9814
lclavicle 3.62285e-014 6.75868e-015
lhumerus -32.5835 9.45354 80.3762
lradius 35.0318
lwrist -3.99843
lhand -17.4424 25.2721
lfingers 7.12502
lthumb 8.80846 55.0683
rfemur -10.2966 -5.04862 24.951
rtibia 31.3766
rfoot -9.9034 -1.2495
rtoes 0.756952
lfemur -10.0397 -10.7163 -16.6392
ltibia 51.3321
lfoot 1.3847 -21.8997
ltoes -10.1411
206
root 10.3409 18.1822 -0.14083 -181.821 -8.00303 181.643
lowerback 14.4419 5.13327 3.04727
upperback 3.04154 6.81402 -1.50696
thorax -4.27456 3.18257 -4.4673
lowerneck -17.1988 16.3235 -4.19008
upperneck 44.6258 21.9434 3.93735
head 18.7125 7.30163 6.34675
rclavicle 7.85199e-015 7.95139e-015
rhumerus -42.2418 -17.4051 -69.5747
rradius 38.715
rwrist 4.46965
rhand -12.5256 7.27053
rfingers 7.12502
rthumb 13.5505 -22.2686
lclavicle 7.85199e-015 7.95139e-015
lhumerus -32.275 8.95503 80.6119
lradius 35.4271
lwrist -3.64861
lhand -17.6093 25.5377
lfingers 7.12502
lthumb 8.64735 55.3405
rfemur -10.509 -4.95772 24.621
rtibia 31.185
rfoot -9.78189 -1.32525
rtoes 1.62298
lfemur -8.93556 -10.7849 -16.9263
ltibia 50.7538
lfoot 3.70506 -23.7878
ltoes -8.78634
207
root 10.323 18.1846 -0.0386684 -181.828 -8.06563 181.713
lowerback 14.419 5.01528 2.9933
upperback 3.03176 6.65873 -1.40342
thorax -4.30627 3.10662 -4.3031
lowerneck -17.0887 16.3174 -4.21673
upperneck 44.5286 21.9393 3.883
head 18.6315 7.30233 6.30046
rclavicle -9.70069e-014 2.34566e-014
rhumerus -42.5503 -17.7706 -69.1307
rradius 38.0168
rwrist 4.60479
rhand -11.981 6.56884
rfingers 7.12502
rthumb 14.0753 -22.9345
lclavicle -9.70069e-014 2.34566e-014
lhumerus -31.9423 8.99987 80.709
lradius 35.527
lwrist -3.67736
lhand -17.5868 25.5353
lfingers 7.12502
lthumb 8.66914 55.3373
rfemur -10.7673 -4.72663 24.6199
rtibia 30.9691
rfoot -9.60451 -1.52525
rtoes 2.21941
lfemur -7.92899 -10.8697 -16.8929
ltibia 50.0744
lfoot 6.98932 -25.3349
ltoes -4.24928
